<mxfile host="app.diagrams.net" modified="2022-04-09T18:51:12.422Z" agent="5.0 (Macintosh; Intel Mac OS X 10_15_7) AppleWebKit/537.36 (KHTML, like Gecko) Chrome/100.0.4896.60 Safari/537.36" etag="zfoyknd_Fp90reVcV6Qi" version="17.4.0" type="github">
  <diagram id="s4D64hzgJNli7QDvDHez" name="Page-1">
    <mxGraphModel dx="946" dy="625" grid="1" gridSize="10" guides="1" tooltips="1" connect="1" arrows="1" fold="1" page="1" pageScale="1" pageWidth="827" pageHeight="1169" math="0" shadow="0">
      <root>
        <mxCell id="0" />
        <mxCell id="1" parent="0" />
        <mxCell id="1j6yNKkM6Mfmccg1zby1-1" style="edgeStyle=orthogonalEdgeStyle;rounded=0;orthogonalLoop=1;jettySize=auto;html=1;exitX=0.5;exitY=1;exitDx=0;exitDy=0;entryX=0.5;entryY=0;entryDx=0;entryDy=0;" edge="1" parent="1" source="1j6yNKkM6Mfmccg1zby1-3" target="1j6yNKkM6Mfmccg1zby1-5">
          <mxGeometry relative="1" as="geometry" />
        </mxCell>
        <mxCell id="1j6yNKkM6Mfmccg1zby1-2" style="edgeStyle=orthogonalEdgeStyle;rounded=0;orthogonalLoop=1;jettySize=auto;html=1;exitX=0.5;exitY=1;exitDx=0;exitDy=0;entryX=0.5;entryY=0;entryDx=0;entryDy=0;" edge="1" parent="1" source="1j6yNKkM6Mfmccg1zby1-3" target="1j6yNKkM6Mfmccg1zby1-7">
          <mxGeometry relative="1" as="geometry" />
        </mxCell>
        <mxCell id="1j6yNKkM6Mfmccg1zby1-3" value="Strona Główna" style="whiteSpace=wrap;html=1;aspect=fixed;" vertex="1" parent="1">
          <mxGeometry x="200" y="40" width="80" height="80" as="geometry" />
        </mxCell>
        <mxCell id="1j6yNKkM6Mfmccg1zby1-4" style="edgeStyle=orthogonalEdgeStyle;rounded=0;orthogonalLoop=1;jettySize=auto;html=1;exitX=0.5;exitY=1;exitDx=0;exitDy=0;entryX=0.5;entryY=0;entryDx=0;entryDy=0;" edge="1" parent="1" source="1j6yNKkM6Mfmccg1zby1-5" target="1j6yNKkM6Mfmccg1zby1-16">
          <mxGeometry relative="1" as="geometry">
            <Array as="points">
              <mxPoint x="320" y="300" />
              <mxPoint x="400" y="300" />
              <mxPoint x="400" y="20" />
              <mxPoint x="520" y="20" />
            </Array>
          </mxGeometry>
        </mxCell>
        <mxCell id="1j6yNKkM6Mfmccg1zby1-5" value="Logowanie" style="whiteSpace=wrap;html=1;aspect=fixed;" vertex="1" parent="1">
          <mxGeometry x="280" y="200" width="80" height="80" as="geometry" />
        </mxCell>
        <mxCell id="1j6yNKkM6Mfmccg1zby1-6" style="edgeStyle=orthogonalEdgeStyle;rounded=0;orthogonalLoop=1;jettySize=auto;html=1;exitX=1;exitY=0.5;exitDx=0;exitDy=0;entryX=0;entryY=0.5;entryDx=0;entryDy=0;" edge="1" parent="1" source="1j6yNKkM6Mfmccg1zby1-7" target="1j6yNKkM6Mfmccg1zby1-5">
          <mxGeometry relative="1" as="geometry" />
        </mxCell>
        <mxCell id="1j6yNKkM6Mfmccg1zby1-7" value="Rejestracja" style="whiteSpace=wrap;html=1;aspect=fixed;" vertex="1" parent="1">
          <mxGeometry x="120" y="200" width="80" height="80" as="geometry" />
        </mxCell>
        <mxCell id="1j6yNKkM6Mfmccg1zby1-8" style="edgeStyle=orthogonalEdgeStyle;rounded=0;orthogonalLoop=1;jettySize=auto;html=1;exitX=0.5;exitY=1;exitDx=0;exitDy=0;" edge="1" parent="1" source="1j6yNKkM6Mfmccg1zby1-9" target="1j6yNKkM6Mfmccg1zby1-13">
          <mxGeometry relative="1" as="geometry" />
        </mxCell>
        <mxCell id="1j6yNKkM6Mfmccg1zby1-9" value="Kwestionariusz do wsparcia rekomendacji filmów" style="whiteSpace=wrap;html=1;aspect=fixed;" vertex="1" parent="1">
          <mxGeometry x="440" y="200" width="120" height="120" as="geometry" />
        </mxCell>
        <mxCell id="1j6yNKkM6Mfmccg1zby1-10" style="edgeStyle=orthogonalEdgeStyle;rounded=0;orthogonalLoop=1;jettySize=auto;html=1;exitX=0.5;exitY=1;exitDx=0;exitDy=0;" edge="1" parent="1" source="1j6yNKkM6Mfmccg1zby1-11">
          <mxGeometry relative="1" as="geometry">
            <mxPoint x="500" y="400" as="targetPoint" />
            <Array as="points">
              <mxPoint x="640" y="360" />
              <mxPoint x="500" y="360" />
            </Array>
          </mxGeometry>
        </mxCell>
        <mxCell id="1j6yNKkM6Mfmccg1zby1-11" value="Rejestracja" style="whiteSpace=wrap;html=1;aspect=fixed;" vertex="1" parent="1">
          <mxGeometry x="600" y="200" width="80" height="80" as="geometry" />
        </mxCell>
        <mxCell id="1j6yNKkM6Mfmccg1zby1-12" style="edgeStyle=orthogonalEdgeStyle;rounded=0;orthogonalLoop=1;jettySize=auto;html=1;exitX=0.5;exitY=1;exitDx=0;exitDy=0;" edge="1" parent="1" source="1j6yNKkM6Mfmccg1zby1-13">
          <mxGeometry relative="1" as="geometry">
            <mxPoint x="240" y="40" as="targetPoint" />
            <Array as="points">
              <mxPoint x="500" y="500" />
              <mxPoint x="100" y="500" />
              <mxPoint x="100" y="20" />
              <mxPoint x="240" y="20" />
            </Array>
          </mxGeometry>
        </mxCell>
        <mxCell id="1j6yNKkM6Mfmccg1zby1-13" value="Wylogowanie" style="whiteSpace=wrap;html=1;aspect=fixed;" vertex="1" parent="1">
          <mxGeometry x="460" y="400" width="80" height="80" as="geometry" />
        </mxCell>
        <mxCell id="1j6yNKkM6Mfmccg1zby1-14" style="edgeStyle=orthogonalEdgeStyle;rounded=0;orthogonalLoop=1;jettySize=auto;html=1;exitX=0.5;exitY=1;exitDx=0;exitDy=0;entryX=0.5;entryY=0;entryDx=0;entryDy=0;" edge="1" parent="1" source="1j6yNKkM6Mfmccg1zby1-16" target="1j6yNKkM6Mfmccg1zby1-9">
          <mxGeometry relative="1" as="geometry" />
        </mxCell>
        <mxCell id="1j6yNKkM6Mfmccg1zby1-15" style="edgeStyle=orthogonalEdgeStyle;rounded=0;orthogonalLoop=1;jettySize=auto;html=1;exitX=0.5;exitY=1;exitDx=0;exitDy=0;entryX=0.5;entryY=0;entryDx=0;entryDy=0;" edge="1" parent="1" source="1j6yNKkM6Mfmccg1zby1-16" target="1j6yNKkM6Mfmccg1zby1-11">
          <mxGeometry relative="1" as="geometry" />
        </mxCell>
        <mxCell id="1j6yNKkM6Mfmccg1zby1-16" value="Profil Użytkownika" style="whiteSpace=wrap;html=1;aspect=fixed;" vertex="1" parent="1">
          <mxGeometry x="480" y="40" width="80" height="80" as="geometry" />
        </mxCell>
        <mxCell id="1j6yNKkM6Mfmccg1zby1-17" value="Diagram Przewidywanego użytkowania aplikacji" style="text;html=1;strokeColor=default;fillColor=none;align=center;verticalAlign=middle;whiteSpace=wrap;rounded=0;" vertex="1" parent="1">
          <mxGeometry x="160" y="360" width="160" height="40" as="geometry" />
        </mxCell>
      </root>
    </mxGraphModel>
  </diagram>
</mxfile>
